<svg width="20" height="17" viewBox="0 0 20 17" fill="none" xmlns="http://www.w3.org/2000/svg">
<path d="M14.0909 15.7273V14.0909C14.0909 13.2229 13.7461 12.3905 13.1323 11.7767C12.5186 11.163 11.6862 10.8182 10.8182 10.8182H4.27273C3.40475 10.8182 2.57232 11.163 1.95856 11.7767C1.3448 12.3905 1 13.2229 1 14.0909V15.7273" stroke="#485572" stroke-width="2" stroke-linecap="round" stroke-linejoin="round"/>
<path d="M7.54543 7.54545C9.35291 7.54545 10.8182 6.0802 10.8182 4.27273C10.8182 2.46525 9.35291 1 7.54543 1C5.73795 1 4.27271 2.46525 4.27271 4.27273C4.27271 6.0802 5.73795 7.54545 7.54543 7.54545Z" stroke="#485572" stroke-width="2" stroke-linecap="round" stroke-linejoin="round"/>
<path d="M19 15.7273V14.0909C18.9995 13.3658 18.7581 12.6614 18.3139 12.0883C17.8696 11.5152 17.2476 11.1058 16.5455 10.9246" stroke="#485572" stroke-width="2" stroke-linecap="round" stroke-linejoin="round"/>
<path d="M13.2727 1.10638C13.9767 1.28663 14.6006 1.69605 15.0462 2.27009C15.4918 2.84414 15.7337 3.55015 15.7337 4.27684C15.7337 5.00352 15.4918 5.70954 15.0462 6.28358C14.6006 6.85763 13.9767 7.26705 13.2727 7.44729" stroke="#485572" stroke-width="2" stroke-linecap="round" stroke-linejoin="round"/>
</svg>
