<svg width="726" height="274" viewBox="0 0 726 274" fill="none" xmlns="http://www.w3.org/2000/svg">
<path d="M14.2787 246.322C14.2787 246.943 14.0541 247.443 13.6049 247.822C13.1557 248.197 12.5268 248.422 11.7182 248.496V249.697H10.9155V248.52C9.96234 248.5 9.12641 248.332 8.40766 248.016V246.469C8.7475 246.637 9.1557 246.785 9.63227 246.914C10.1127 247.043 10.5405 247.119 10.9155 247.143V245.326L10.5229 245.174C9.74945 244.869 9.20062 244.539 8.87641 244.184C8.55609 243.824 8.39594 243.381 8.39594 242.854C8.39594 242.287 8.61664 241.822 9.05805 241.459C9.50336 241.092 10.1225 240.869 10.9155 240.791V239.895H11.7182V240.768C12.6127 240.807 13.4213 240.986 14.144 241.307L13.5932 242.678C12.9838 242.428 12.3588 242.275 11.7182 242.221V243.949C12.4799 244.242 13.0209 244.496 13.3412 244.711C13.6655 244.926 13.9018 245.162 14.0502 245.42C14.2026 245.678 14.2787 245.979 14.2787 246.322ZM12.5151 246.41C12.5151 246.246 12.4487 246.107 12.3159 245.994C12.183 245.881 11.9838 245.764 11.7182 245.643V247.102C12.2495 247.012 12.5151 246.781 12.5151 246.41ZM10.1596 242.854C10.1596 243.025 10.2182 243.168 10.3354 243.281C10.4565 243.391 10.6498 243.504 10.9155 243.621V242.244C10.4116 242.318 10.1596 242.521 10.1596 242.854ZM20.4128 249H18.6023V244.043L18.6198 243.229L18.6491 242.338C18.3484 242.639 18.1394 242.836 18.0222 242.93L17.0378 243.721L16.1648 242.631L18.9245 240.434H20.4128V249ZM31 249H28.9375L26.6934 245.391L25.9258 245.941V249H24.1094V240.434H25.9258V244.354L26.6406 243.346L28.9609 240.434H30.9766L27.9883 244.225L31 249Z" fill="#8C8CA1"/>
<path d="M14.2787 187.322C14.2787 187.943 14.0541 188.443 13.6049 188.822C13.1557 189.197 12.5268 189.422 11.7182 189.496V190.697H10.9155V189.52C9.96234 189.5 9.12641 189.332 8.40766 189.016V187.469C8.7475 187.637 9.1557 187.785 9.63227 187.914C10.1127 188.043 10.5405 188.119 10.9155 188.143V186.326L10.5229 186.174C9.74945 185.869 9.20062 185.539 8.87641 185.184C8.55609 184.824 8.39594 184.381 8.39594 183.854C8.39594 183.287 8.61664 182.822 9.05805 182.459C9.50336 182.092 10.1225 181.869 10.9155 181.791V180.895H11.7182V181.768C12.6127 181.807 13.4213 181.986 14.144 182.307L13.5932 183.678C12.9838 183.428 12.3588 183.275 11.7182 183.221V184.949C12.4799 185.242 13.0209 185.496 13.3412 185.711C13.6655 185.926 13.9018 186.162 14.0502 186.42C14.2026 186.678 14.2787 186.979 14.2787 187.322ZM12.5151 187.41C12.5151 187.246 12.4487 187.107 12.3159 186.994C12.183 186.881 11.9838 186.764 11.7182 186.643V188.102C12.2495 188.012 12.5151 187.781 12.5151 187.41ZM10.1596 183.854C10.1596 184.025 10.2182 184.168 10.3354 184.281C10.4565 184.391 10.6498 184.504 10.9155 184.621V183.244C10.4116 183.318 10.1596 183.521 10.1596 183.854ZM19.0534 184.527C19.8816 184.527 20.5398 184.76 21.028 185.225C21.5202 185.689 21.7663 186.326 21.7663 187.135C21.7663 188.092 21.4714 188.828 20.8816 189.344C20.2917 189.859 19.448 190.117 18.3503 190.117C17.3972 190.117 16.6277 189.963 16.0417 189.654V188.09C16.3503 188.254 16.7097 188.389 17.1198 188.494C17.53 188.596 17.9187 188.646 18.2859 188.646C19.3913 188.646 19.9441 188.193 19.9441 187.287C19.9441 186.424 19.3718 185.992 18.2273 185.992C18.0202 185.992 17.7917 186.014 17.5417 186.057C17.2917 186.096 17.0886 186.139 16.9323 186.186L16.2116 185.799L16.5339 181.434H21.1804V182.969H18.1218L17.9636 184.65L18.1687 184.609C18.407 184.555 18.7019 184.527 19.0534 184.527ZM31 190H28.9375L26.6934 186.391L25.9258 186.941V190H24.1094V181.434H25.9258V185.354L26.6406 184.346L28.9609 181.434H30.9766L27.9883 185.225L31 190Z" fill="#8C8CA1"/>
<path d="M103.169 273L101.106 266.279H101.053C101.128 267.646 101.165 268.559 101.165 269.016V273H99.5417V264.434H102.014L104.042 270.984H104.077L106.227 264.434H108.7V273H107.007V268.945C107.007 268.754 107.009 268.533 107.012 268.283C107.02 268.033 107.048 267.369 107.094 266.291H107.042L104.833 273H103.169ZM119.357 268.705C119.357 270.123 119.006 271.213 118.303 271.975C117.6 272.736 116.592 273.117 115.279 273.117C113.967 273.117 112.959 272.736 112.256 271.975C111.553 271.213 111.201 270.119 111.201 268.693C111.201 267.268 111.553 266.18 112.256 265.43C112.963 264.676 113.975 264.299 115.291 264.299C116.607 264.299 117.613 264.678 118.309 265.436C119.008 266.193 119.357 267.283 119.357 268.705ZM113.105 268.705C113.105 269.662 113.287 270.383 113.65 270.867C114.014 271.352 114.557 271.594 115.279 271.594C116.729 271.594 117.453 270.631 117.453 268.705C117.453 266.775 116.732 265.811 115.291 265.811C114.568 265.811 114.023 266.055 113.656 266.543C113.289 267.027 113.105 267.748 113.105 268.705ZM129.452 273H127.144L123.417 266.52H123.365C123.439 267.664 123.476 268.48 123.476 268.969V273H121.853V264.434H124.144L127.865 270.85H127.906C127.847 269.736 127.818 268.949 127.818 268.488V264.434H129.452V273Z" fill="#8C8CA1"/>
<path d="M206.79 273H204.973V265.945H202.647V264.434H209.116V265.945H206.79V273ZM218.127 264.434V269.977C218.127 270.609 217.984 271.164 217.699 271.641C217.418 272.117 217.01 272.482 216.475 272.736C215.939 272.99 215.307 273.117 214.576 273.117C213.475 273.117 212.619 272.836 212.01 272.273C211.4 271.707 211.096 270.934 211.096 269.953V264.434H212.906V269.678C212.906 270.338 213.039 270.822 213.305 271.131C213.57 271.439 214.01 271.594 214.623 271.594C215.217 271.594 215.646 271.439 215.912 271.131C216.182 270.818 216.316 270.33 216.316 269.666V264.434H218.127ZM225.878 273H220.945V264.434H225.878V265.922H222.761V267.803H225.661V269.291H222.761V271.5H225.878V273Z" fill="#8C8CA1"/>
<path d="M308.596 273H306.528L305.368 268.5C305.325 268.34 305.251 268.01 305.145 267.51C305.044 267.006 304.985 266.668 304.969 266.496C304.946 266.707 304.887 267.047 304.794 267.516C304.7 267.98 304.628 268.312 304.577 268.512L303.423 273H301.36L299.175 264.434H300.962L302.057 269.109C302.249 269.973 302.387 270.721 302.473 271.354C302.497 271.131 302.55 270.787 302.632 270.322C302.717 269.854 302.798 269.49 302.872 269.232L304.12 264.434H305.837L307.085 269.232C307.139 269.447 307.208 269.775 307.29 270.217C307.372 270.658 307.434 271.037 307.477 271.354C307.516 271.049 307.579 270.67 307.665 270.217C307.751 269.76 307.829 269.391 307.899 269.109L308.989 264.434H310.776L308.596 273ZM317.508 273H312.574V264.434H317.508V265.922H314.391V267.803H317.291V269.291H314.391V271.5H317.508V273ZM327.128 268.635C327.128 270.045 326.726 271.125 325.921 271.875C325.12 272.625 323.962 273 322.447 273H320.021V264.434H322.71C324.109 264.434 325.195 264.803 325.968 265.541C326.741 266.279 327.128 267.311 327.128 268.635ZM325.241 268.682C325.241 266.842 324.429 265.922 322.804 265.922H321.837V271.5H322.616C324.366 271.5 325.241 270.561 325.241 268.682Z" fill="#8C8CA1"/>
<path d="M405.559 273H403.743V265.945H401.417V264.434H407.885V265.945H405.559V273ZM416.943 273H415.133V269.303H411.74V273H409.924V264.434H411.74V267.791H415.133V264.434H416.943V273ZM426.804 264.434V269.977C426.804 270.609 426.661 271.164 426.376 271.641C426.095 272.117 425.687 272.482 425.152 272.736C424.616 272.99 423.984 273.117 423.253 273.117C422.152 273.117 421.296 272.836 420.687 272.273C420.077 271.707 419.773 270.934 419.773 269.953V264.434H421.583V269.678C421.583 270.338 421.716 270.822 421.982 271.131C422.247 271.439 422.687 271.594 423.3 271.594C423.894 271.594 424.324 271.439 424.589 271.131C424.859 270.818 424.993 270.33 424.993 269.666V264.434H426.804Z" fill="#8C8CA1"/>
<path d="M505.905 273H504.118V264.434H509.028V265.922H505.905V268.131H508.811V269.613H505.905V273ZM513.24 268.236H513.826C514.4 268.236 514.824 268.141 515.098 267.949C515.371 267.758 515.508 267.457 515.508 267.047C515.508 266.641 515.367 266.352 515.086 266.18C514.809 266.008 514.377 265.922 513.791 265.922H513.24V268.236ZM513.24 269.713V273H511.424V264.434H513.92C515.084 264.434 515.945 264.646 516.504 265.072C517.062 265.494 517.342 266.137 517.342 267C517.342 267.504 517.203 267.953 516.926 268.348C516.648 268.738 516.256 269.045 515.748 269.268C517.037 271.193 517.877 272.438 518.268 273H516.252L514.207 269.713H513.24ZM520.066 273V264.434H521.882V273H520.066Z" fill="#485572"/>
<path d="M607.493 270.621C607.493 271.395 607.214 272.004 606.655 272.449C606.1 272.895 605.327 273.117 604.335 273.117C603.421 273.117 602.612 272.945 601.909 272.602V270.914C602.487 271.172 602.975 271.354 603.374 271.459C603.776 271.564 604.143 271.617 604.475 271.617C604.874 271.617 605.178 271.541 605.389 271.389C605.604 271.236 605.712 271.01 605.712 270.709C605.712 270.541 605.665 270.393 605.571 270.264C605.477 270.131 605.339 270.004 605.155 269.883C604.975 269.762 604.606 269.568 604.048 269.303C603.524 269.057 603.132 268.82 602.87 268.594C602.608 268.367 602.399 268.104 602.243 267.803C602.087 267.502 602.009 267.15 602.009 266.748C602.009 265.99 602.264 265.395 602.776 264.961C603.292 264.527 604.003 264.311 604.909 264.311C605.354 264.311 605.778 264.363 606.18 264.469C606.587 264.574 607.01 264.723 607.452 264.914L606.866 266.326C606.409 266.139 606.03 266.008 605.729 265.934C605.432 265.859 605.139 265.822 604.85 265.822C604.507 265.822 604.243 265.902 604.059 266.062C603.876 266.223 603.784 266.432 603.784 266.689C603.784 266.85 603.821 266.99 603.895 267.111C603.969 267.229 604.087 267.344 604.247 267.457C604.411 267.566 604.796 267.766 605.401 268.055C606.202 268.438 606.751 268.822 607.048 269.209C607.344 269.592 607.493 270.062 607.493 270.621ZM615.01 273L614.389 270.961H611.266L610.645 273H608.688L611.711 264.398H613.932L616.967 273H615.01ZM613.955 269.438C613.381 267.59 613.057 266.545 612.982 266.303C612.912 266.061 612.861 265.869 612.83 265.729C612.701 266.229 612.332 267.465 611.723 269.438H613.955ZM622.075 273H620.259V265.945H617.933V264.434H624.402V265.945H622.075V273Z" fill="#8C8CA1"/>
<path d="M706.194 270.621C706.194 271.395 705.915 272.004 705.356 272.449C704.801 272.895 704.028 273.117 703.036 273.117C702.122 273.117 701.313 272.945 700.61 272.602V270.914C701.188 271.172 701.676 271.354 702.075 271.459C702.477 271.564 702.844 271.617 703.176 271.617C703.575 271.617 703.88 271.541 704.091 271.389C704.305 271.236 704.413 271.01 704.413 270.709C704.413 270.541 704.366 270.393 704.272 270.264C704.178 270.131 704.04 270.004 703.856 269.883C703.676 269.762 703.307 269.568 702.749 269.303C702.225 269.057 701.833 268.82 701.571 268.594C701.309 268.367 701.1 268.104 700.944 267.803C700.788 267.502 700.71 267.15 700.71 266.748C700.71 265.99 700.966 265.395 701.477 264.961C701.993 264.527 702.704 264.311 703.61 264.311C704.055 264.311 704.479 264.363 704.882 264.469C705.288 264.574 705.712 264.723 706.153 264.914L705.567 266.326C705.11 266.139 704.731 266.008 704.43 265.934C704.134 265.859 703.841 265.822 703.551 265.822C703.208 265.822 702.944 265.902 702.76 266.062C702.577 266.223 702.485 266.432 702.485 266.689C702.485 266.85 702.522 266.99 702.596 267.111C702.671 267.229 702.788 267.344 702.948 267.457C703.112 267.566 703.497 267.766 704.102 268.055C704.903 268.438 705.452 268.822 705.749 269.209C706.046 269.592 706.194 270.062 706.194 270.621ZM715.439 264.434V269.977C715.439 270.609 715.297 271.164 715.012 271.641C714.73 272.117 714.322 272.482 713.787 272.736C713.252 272.99 712.619 273.117 711.889 273.117C710.787 273.117 709.932 272.836 709.322 272.273C708.713 271.707 708.408 270.934 708.408 269.953V264.434H710.219V269.678C710.219 270.338 710.352 270.822 710.617 271.131C710.883 271.439 711.322 271.594 711.936 271.594C712.529 271.594 712.959 271.439 713.225 271.131C713.494 270.818 713.629 270.33 713.629 269.666V264.434H715.439ZM725.857 273H723.548L719.822 266.52H719.769C719.843 267.664 719.88 268.48 719.88 268.969V273H718.257V264.434H720.548L724.269 270.85H724.31C724.251 269.736 724.222 268.949 724.222 268.488V264.434H725.857V273Z" fill="#8C8CA1"/>
<path d="M6.70328 127.322C6.70328 127.943 6.47867 128.443 6.02945 128.822C5.58023 129.197 4.95133 129.422 4.14273 129.496V130.697H3.34V129.52C2.38688 129.5 1.55094 129.332 0.832188 129.016V127.469C1.17203 127.637 1.58023 127.785 2.0568 127.914C2.53727 128.043 2.965 128.119 3.34 128.143V126.326L2.94742 126.174C2.17398 125.869 1.62516 125.539 1.30094 125.184C0.980625 124.824 0.820469 124.381 0.820469 123.854C0.820469 123.287 1.04117 122.822 1.48258 122.459C1.92789 122.092 2.54703 121.869 3.34 121.791V120.895H4.14273V121.768C5.03727 121.807 5.84586 121.986 6.56852 122.307L6.01773 123.678C5.40836 123.428 4.78336 123.275 4.14273 123.221V124.949C4.90445 125.242 5.44547 125.496 5.76578 125.711C6.09 125.926 6.32633 126.162 6.47477 126.42C6.62711 126.678 6.70328 126.979 6.70328 127.322ZM4.93961 127.41C4.93961 127.246 4.8732 127.107 4.74039 126.994C4.60758 126.881 4.40836 126.764 4.14273 126.643V128.102C4.67398 128.012 4.93961 127.781 4.93961 127.41ZM2.58414 123.854C2.58414 124.025 2.64273 124.168 2.75992 124.281C2.88102 124.391 3.07438 124.504 3.34 124.621V123.244C2.83609 123.318 2.58414 123.521 2.58414 123.854ZM12.8373 130H11.0268V125.043L11.0444 124.229L11.0737 123.338C10.7729 123.639 10.5639 123.836 10.4467 123.93L9.46234 124.721L8.5893 123.631L11.3491 121.434H12.8373V130ZM21.8777 125.717C21.8777 127.213 21.6316 128.32 21.1394 129.039C20.6511 129.758 19.8972 130.117 18.8777 130.117C17.8894 130.117 17.1433 129.746 16.6394 129.004C16.1394 128.262 15.8894 127.166 15.8894 125.717C15.8894 124.205 16.1335 123.092 16.6218 122.377C17.1101 121.658 17.862 121.299 18.8777 121.299C19.8659 121.299 20.612 121.674 21.1159 122.424C21.6238 123.174 21.8777 124.271 21.8777 125.717ZM17.6882 125.717C17.6882 126.768 17.778 127.521 17.9577 127.979C18.1413 128.432 18.448 128.658 18.8777 128.658C19.2995 128.658 19.6042 128.428 19.7917 127.967C19.9792 127.506 20.073 126.756 20.073 125.717C20.073 124.666 19.9773 123.912 19.7859 123.455C19.5984 122.994 19.2956 122.764 18.8777 122.764C18.4519 122.764 18.1472 122.994 17.9636 123.455C17.78 123.912 17.6882 124.666 17.6882 125.717ZM31 130H28.9375L26.6934 126.391L25.9258 126.941V130H24.1094V121.434H25.9258V125.354L26.6406 124.346L28.9609 121.434H30.9766L27.9883 125.225L31 130Z" fill="#8C8CA1"/>
<path d="M6.70328 67.3223C6.70328 67.9434 6.47867 68.4434 6.02945 68.8223C5.58023 69.1973 4.95133 69.4219 4.14273 69.4961V70.6973H3.34V69.5195C2.38688 69.5 1.55094 69.332 0.832188 69.0156V67.4688C1.17203 67.6367 1.58023 67.7852 2.0568 67.9141C2.53727 68.043 2.965 68.1191 3.34 68.1426V66.3262L2.94742 66.1738C2.17398 65.8691 1.62516 65.5391 1.30094 65.1836C0.980625 64.8242 0.820469 64.3809 0.820469 63.8535C0.820469 63.2871 1.04117 62.8223 1.48258 62.459C1.92789 62.0918 2.54703 61.8691 3.34 61.791V60.8945H4.14273V61.7676C5.03727 61.8066 5.84586 61.9863 6.56852 62.3066L6.01773 63.6777C5.40836 63.4277 4.78336 63.2754 4.14273 63.2207V64.9492C4.90445 65.2422 5.44547 65.4961 5.76578 65.7109C6.09 65.9258 6.32633 66.1621 6.47477 66.4199C6.62711 66.6777 6.70328 66.9785 6.70328 67.3223ZM4.93961 67.4102C4.93961 67.2461 4.8732 67.1074 4.74039 66.9941C4.60758 66.8809 4.40836 66.7637 4.14273 66.6426V68.1016C4.67398 68.0117 4.93961 67.7812 4.93961 67.4102ZM2.58414 63.8535C2.58414 64.0254 2.64273 64.168 2.75992 64.2812C2.88102 64.3906 3.07438 64.5039 3.34 64.6211V63.2441C2.83609 63.3184 2.58414 63.5215 2.58414 63.8535ZM11.478 64.5273C12.3061 64.5273 12.9643 64.7598 13.4526 65.2246C13.9448 65.6895 14.1909 66.3262 14.1909 67.1348C14.1909 68.0918 13.8959 68.8281 13.3061 69.3438C12.7163 69.8594 11.8725 70.1172 10.7748 70.1172C9.82172 70.1172 9.05219 69.9629 8.46625 69.6543V68.0898C8.77484 68.2539 9.13422 68.3887 9.54438 68.4941C9.95453 68.5957 10.3432 68.6465 10.7104 68.6465C11.8159 68.6465 12.3686 68.1934 12.3686 67.2871C12.3686 66.4238 11.7963 65.9922 10.6518 65.9922C10.4448 65.9922 10.2163 66.0137 9.96625 66.0566C9.71625 66.0957 9.51313 66.1387 9.35688 66.1855L8.63617 65.7988L8.95844 61.4336H13.6049V62.9688H10.5463L10.3881 64.6504L10.5932 64.6094C10.8315 64.5547 11.1264 64.5273 11.478 64.5273ZM21.8777 65.7168C21.8777 67.2129 21.6316 68.3203 21.1394 69.0391C20.6511 69.7578 19.8972 70.1172 18.8777 70.1172C17.8894 70.1172 17.1433 69.7461 16.6394 69.0039C16.1394 68.2617 15.8894 67.166 15.8894 65.7168C15.8894 64.2051 16.1335 63.0918 16.6218 62.377C17.1101 61.6582 17.862 61.2988 18.8777 61.2988C19.8659 61.2988 20.612 61.6738 21.1159 62.4238C21.6238 63.1738 21.8777 64.2715 21.8777 65.7168ZM17.6882 65.7168C17.6882 66.7676 17.778 67.5215 17.9577 67.9785C18.1413 68.4316 18.448 68.6582 18.8777 68.6582C19.2995 68.6582 19.6042 68.4277 19.7917 67.9668C19.9792 67.5059 20.073 66.7559 20.073 65.7168C20.073 64.666 19.9773 63.9121 19.7859 63.4551C19.5984 62.9941 19.2956 62.7637 18.8777 62.7637C18.4519 62.7637 18.1472 62.9941 17.9636 63.4551C17.78 63.9121 17.6882 64.666 17.6882 65.7168ZM31 70H28.9375L26.6934 66.3906L25.9258 66.9414V70H24.1094V61.4336H25.9258V65.3535L26.6406 64.3457L28.9609 61.4336H30.9766L27.9883 65.2246L31 70Z" fill="#8C8CA1"/>
<path d="M10.9272 7.32227C10.9272 7.94336 10.7026 8.44336 10.2534 8.82227C9.80414 9.19727 9.17523 9.42188 8.36664 9.49609V10.6973H7.56391V9.51953C6.61078 9.5 5.77484 9.33203 5.05609 9.01562V7.46875C5.39594 7.63672 5.80414 7.78516 6.2807 7.91406C6.76117 8.04297 7.18891 8.11914 7.56391 8.14258V6.32617L7.17133 6.17383C6.39789 5.86914 5.84906 5.53906 5.52484 5.18359C5.20453 4.82422 5.04437 4.38086 5.04437 3.85352C5.04437 3.28711 5.26508 2.82227 5.70648 2.45898C6.1518 2.0918 6.77094 1.86914 7.56391 1.79102V0.894531H8.36664V1.76758C9.26117 1.80664 10.0698 1.98633 10.7924 2.30664L10.2416 3.67773C9.63227 3.42773 9.00727 3.27539 8.36664 3.2207V4.94922C9.12836 5.24219 9.66937 5.49609 9.98969 5.71094C10.3139 5.92578 10.5502 6.16211 10.6987 6.41992C10.851 6.67773 10.9272 6.97852 10.9272 7.32227ZM9.16352 7.41016C9.16352 7.24609 9.09711 7.10742 8.9643 6.99414C8.83148 6.88086 8.63227 6.76367 8.36664 6.64258V8.10156C8.89789 8.01172 9.16352 7.78125 9.16352 7.41016ZM6.80805 3.85352C6.80805 4.02539 6.86664 4.16797 6.98383 4.28125C7.10492 4.39062 7.29828 4.50391 7.56391 4.62109V3.24414C7.06 3.31836 6.80805 3.52148 6.80805 3.85352ZM17.0612 10H15.2507V5.04297L15.2683 4.22852L15.2976 3.33789C14.9968 3.63867 14.7878 3.83594 14.6706 3.92969L13.6862 4.7207L12.8132 3.63086L15.573 1.43359H17.0612V10ZM24.3848 10L22.3223 3.2793H22.2695C22.3438 4.64648 22.3809 5.55859 22.3809 6.01562V10H20.7578V1.43359H23.2305L25.2578 7.98438H25.293L27.4434 1.43359H29.916V10H28.2227V5.94531C28.2227 5.75391 28.2246 5.5332 28.2285 5.2832C28.2363 5.0332 28.2637 4.36914 28.3105 3.29102H28.2578L26.0488 10H24.3848Z" fill="#8C8CA1"/>
<path d="M55.6465 244.646L114.646 185.646L214.5 153L315 185.646L415 144.5L514.5 164.5L614 126L714 65" stroke="#2FCA72" stroke-width="2"/>
<circle cx="115" cy="186" r="4" fill="#2FCA72" stroke="white" stroke-width="2"/>
<circle cx="214" cy="153" r="4" fill="#2FCA72" stroke="white" stroke-width="2"/>
<circle cx="314" cy="185" r="4" fill="#2FCA72" stroke="white" stroke-width="2"/>
<circle cx="414" cy="145" r="4" fill="#2FCA72" stroke="white" stroke-width="2"/>
<circle cx="514" cy="164" r="4" fill="#485572" stroke="white" stroke-width="2"/>
<circle cx="614" cy="125" r="4" fill="#2FCA72" stroke="white" stroke-width="2"/>
<circle cx="714" cy="65" r="4" fill="#2FCA72" stroke="white" stroke-width="2"/>
</svg>
